<?xml version="1.0" encoding="utf-8"?>
<!-- Generator: Adobe Illustrator 16.0.0, SVG Export Plug-In . SVG Version: 6.00 Build 0)  -->
<!DOCTYPE svg PUBLIC "-//W3C//DTD SVG 1.1//EN" "http://www.w3.org/Graphics/SVG/1.1/DTD/svg11.dtd">
<svg version="1.1" id="Layer_1" xmlns="http://www.w3.org/2000/svg" xmlns:xlink="http://www.w3.org/1999/xlink" x="0px" y="0px"
	 width="24px" height="219.458px" viewBox="0 0 24 219.458" enable-background="new 0 0 24 219.458" xml:space="preserve">
<g id="Page-1">
	<g id="Icons-AV" transform="translate(-88.000000, -88.000000)">
		<g id="play-arrow" transform="translate(88.500000, 88.000000)">
			<path id="Shape" fill="#FFFFFF" d="M6.78,53.05v14l11-7L6.78,53.05z"/>
		</g>
	</g>
</g>
<g id="miu">
	<g id="Artboard-1" transform="translate(-755.000000, -551.000000)">
		<g id="slice" transform="translate(215.000000, 119.000000)">
		</g>
		<path id="device-volume-loudspeaker-speaker-mute-glyph" fill="#FFFFFF" d="M766.97,589.2v7.02l-7.88-4.8h-2.08
			c-1.04,0-1.04-1.07-1.04-1.07v-4.27c0,0,0-1.07,1.04-1.07h2.08l0.73-0.44L766.97,589.2L766.97,589.2z M766.97,585.63v-5.41
			l-4.31,2.62L766.97,585.63L766.97,585.63z M776.38,591.71c0.38-1.09,0.591-2.26,0.591-3.49c0-3.06-1.311-5.81-3.4-7.73l-0.76,0.66
			c1.939,1.74,3.159,4.27,3.159,7.08c0,1.02-0.159,2-0.46,2.93L776.38,591.71L776.38,591.71z M774.98,594.38
			c-0.461,0.64-1,1.23-1.59,1.75l-0.805-0.63c0.58-0.49,1.104-1.05,1.555-1.66L774.98,594.38L774.98,594.38z M773.859,590.08
			c0.07-0.44,0.106-0.89,0.106-1.36c0-2.46-1.106-4.66-2.85-6.13l-0.771,0.66c1.603,1.28,2.631,3.25,2.631,5.46
			c0,0.26-0.013,0.51-0.041,0.76L773.859,590.08L773.859,590.08z M772.77,592.95c-0.379,0.6-0.83,1.15-1.35,1.63l-0.8-0.63
			c0.51-0.45,0.94-0.97,1.3-1.55L772.77,592.95L772.77,592.95z M770.939,588.2c-0.159-1.5-0.969-2.8-2.149-3.6l0,0l-0.79,0.68
			c0.82,0.479,1.45,1.24,1.76,2.16L770.939,588.2L770.939,588.2z M770.24,591.32c-0.32,0.53-0.74,1-1.23,1.37l-0.82-0.64
			c0.49-0.33,0.9-0.76,1.211-1.27L770.24,591.32L770.24,591.32z M757.93,582.02l19.55,12.87l0.539-0.84l-19.554-12.87L757.93,582.02
			z"/>
	</g>
</g>
<g id="miu_1_">
	<g id="Artboard-1_1_" transform="translate(-683.000000, -551.000000)">
		<g id="slice_1_" transform="translate(215.000000, 119.000000)">
		</g>
		<path id="device-volume-loudspeaker-speaker-up-glyph" fill="#FFFFFF" d="M687.09,560.59h-2.08c-1.04,0-1.04,1.07-1.04,1.07v4.27
			c0,0,0,1.07,1.04,1.07h2.08l7.88,4.8v-16L687.09,560.59z M701.57,556.06c2.09,1.92,3.4,4.67,3.4,7.73c0,3.15-1.395,5.97-3.58,7.9
			l-0.805-0.63c2.07-1.74,3.381-4.35,3.381-7.27c0-2.81-1.221-5.34-3.156-7.08L701.57,556.06z M699.12,558.17
			c1.739,1.47,2.85,3.67,2.85,6.13c0,2.31-0.979,4.39-2.55,5.86l-0.8-0.63c1.44-1.28,2.35-3.15,2.35-5.23
			c0-2.21-1.02-4.18-2.63-5.46L699.12,558.17z M696.79,560.17c1.319,0.9,2.18,2.41,2.18,4.13c0,1.62-0.77,3.05-1.95,3.96
			l-0.815-0.64c1.065-0.72,1.771-1.94,1.771-3.32c0-1.47-0.789-2.75-1.972-3.45L696.79,560.17L696.79,560.17z"/>
	</g>
</g>
<g id="Layer_6">
	<rect x="6.58" y="77.54" fill="#FFFFFF" width="3.02" height="14"/>
	<rect x="13.92" y="77.54" fill="#FFFFFF" width="3.02" height="14"/>
</g>
<g id="Layer_5">
	<g>
		<path stroke="#FFFFFF" stroke-width="2" stroke-linecap="square" d="M3.665,115.541l7.07-7.357L3.665,115.541z"/>
		<path stroke="#FFFFFF" stroke-width="2" stroke-linecap="square" d="M3.665,110.628v4.91"/>
		<path stroke="#FFFFFF" stroke-width="2" stroke-linecap="square" d="M8.375,115.541h-4.71"/>
	</g>
	<g>
		<path stroke="#FFFFFF" stroke-width="2" stroke-linecap="square" d="M19.385,99.189l-7.07,7.359L19.385,99.189z"/>
		<path stroke="#FFFFFF" stroke-width="2" stroke-linecap="square" d="M19.385,104.089V99.18"/>
		<path stroke="#FFFFFF" stroke-width="2" stroke-linecap="square" d="M14.664,99.189h4.711"/>
	</g>
</g>
<path stroke="#FFFFFF" stroke-width="2" stroke-linecap="square" d="M13.553,129.628l7.07-7.358L13.553,129.628z"/>
<path stroke="#FFFFFF" stroke-width="2" stroke-linecap="square" d="M13.553,124.718v4.91"/>
<path stroke="#FFFFFF" stroke-width="2" stroke-linecap="square" d="M18.262,129.628h-4.709"/>
<path stroke="#FFFFFF" stroke-width="2" stroke-linecap="square" d="M10.438,132.679l-7.07,7.359L10.438,132.679z"/>
<path stroke="#FFFFFF" stroke-width="2" stroke-linecap="square" d="M10.438,137.58v-4.91"/>
<path stroke="#FFFFFF" stroke-width="2" stroke-linecap="square" d="M5.717,132.679h4.71"/>
<g id="Page-1_4_">
	<g id="Icons-AV_4_" transform="translate(-1.000000, -3.000000)">
		<g id="closed-caption_3_" transform="translate(1.000000, 3.000000)">
			<path id="Shape_4_" fill="#FFFFFF" d="M19.973,148.057H4.028c-1.253,0-2.278,1.024-2.278,2.278v13.666
				c0,1.254,1.025,2.275,2.278,2.275h15.945c1.252,0,2.277-1.021,2.277-2.275v-13.666C22.25,149.083,21.225,148.057,19.973,148.057
				L19.973,148.057z M10.861,156.031H9.152v-0.57H6.875v3.416h2.277v-0.566h1.709v1.141c0,0.686-0.457,1.141-1.139,1.141H6.307
				c-0.685,0-1.14-0.455-1.14-1.141v-4.557c0-0.686,0.456-1.143,1.14-1.143h3.416c0.685,0,1.139,0.457,1.139,1.143L10.861,156.031
				L10.861,156.031z M18.833,156.031h-1.708v-0.57h-2.277v3.416h2.277v-0.566h1.708v1.141c0,0.686-0.456,1.141-1.14,1.141h-3.416
				c-0.686,0-1.139-0.455-1.139-1.141v-4.557c0-0.686,0.453-1.143,1.139-1.143h3.416c0.684,0,1.14,0.457,1.14,1.143V156.031
				L18.833,156.031z"/>
		</g>
	</g>
</g>
<g id="Page-1_3_">
	<g id="Icons-AV_3_" transform="translate(-1.000000, -3.000000)">
		<g id="closed-caption_2_" transform="translate(1.000000, 3.000000)">
			<path id="Shape_3_" fill="#7DD2EF" d="M19.973,171.932H4.028c-1.253,0-2.278,1.024-2.278,2.278v13.666
				c0,1.254,1.025,2.275,2.278,2.275h15.945c1.252,0,2.277-1.021,2.277-2.275V174.21C22.25,172.958,21.225,171.932,19.973,171.932
				L19.973,171.932z M10.861,179.906H9.152v-0.57H6.875v3.416h2.277v-0.566h1.709v1.141c0,0.686-0.457,1.141-1.139,1.141H6.307
				c-0.685,0-1.14-0.455-1.14-1.141v-4.557c0-0.686,0.456-1.143,1.14-1.143h3.416c0.685,0,1.139,0.457,1.139,1.143L10.861,179.906
				L10.861,179.906z M18.833,179.906h-1.708v-0.57h-2.277v3.416h2.277v-0.566h1.708v1.141c0,0.686-0.456,1.141-1.14,1.141h-3.416
				c-0.686,0-1.139-0.455-1.139-1.141v-4.557c0-0.686,0.453-1.143,1.139-1.143h3.416c0.684,0,1.14,0.457,1.14,1.143V179.906
				L18.833,179.906z"/>
		</g>
	</g>
</g>
<g>
	<g>
		<path fill="#FFFFFF" d="M11.805,194.71c1.171,0,2.117,0.946,2.117,2.117s-0.945,2.118-2.117,2.118
			c-1.17,0-2.117-0.947-2.117-2.118S10.635,194.71,11.805,194.71z M13.732,200.274h-0.055h-3.406h-0.125
			c-0.697,0-1.259,0.564-1.259,1.259l0,0c0,0.697,0.564,1.259,1.259,1.259h0.125v7.339H8.888v2.521h6.223v-2.521h-1.375v-9.856
			H13.732z"/>
	</g>
</g>
</svg>
